<?xml version="1.0" encoding="utf-8"?>
<!-- Generator: Adobe Illustrator 22.1.0, SVG Export Plug-In . SVG Version: 6.00 Build 0)  -->
<svg version="1.1" id="Capa_1" xmlns="http://www.w3.org/2000/svg" xmlns:xlink="http://www.w3.org/1999/xlink" x="0px" y="0px"
	 viewBox="0 0 800 800" style="enable-background:new 0 0 800 800;" xml:space="preserve">
<style type="text/css">
	.st0{display:none;}
	.st1{display:inline;fill:#FBD289;}
	.st2{display:inline;fill:#EDAB04;}
	.st3{display:inline;fill:#015192;}
	.st4{display:inline;fill:#1B191D;}
	.st5{fill:#6B6B6A;}
	.st6{fill:#E3242D;}
</style>
<g class="st0">
	
		<sodipodi:namedview  bordercolor="#666666" borderopacity="1" fit-margin-bottom="5" fit-margin-left="5" fit-margin-right="5" fit-margin-top="5" gridtolerance="10" guidetolerance="10" id="namedview4" inkscape:current-layer="svg2" inkscape:cx="59.510075" inkscape:cy="40.120543" inkscape:pageopacity="0" inkscape:pageshadow="2" inkscape:window-height="744" inkscape:window-maximized="1" inkscape:window-width="1305" inkscape:window-x="1207" inkscape:window-y="24" inkscape:zoom="4" objecttolerance="10" pagecolor="#ffffff" showgrid="false">
		</sodipodi:namedview>
	
		<path id="path3363_1_" inkscape:connector-curvature="0" sodipodi:nodetypes="cccccsccccccccccssccccccccssccsccccccccssscccccccccccccscccccccccccccc" class="st1" d="
		M136.3,288.9l-9.9,5.6c-12.9,7.3-12.3,6.7-8.6,7.1c17.8,1.5,53.9,4.8,55.4,5l1.9,0.3v32.9c0,26.1-0.1,32.9-0.5,32.9
		c-0.3,0-3.3-0.4-6.6-0.9l-6.1-1v-26.9V317l-1-0.2c-22.7-2.8-34-4.2-61.9-7.6c-0.2-0.2-31.8,15.6-32.1,16.1
		c-0.1,0.2,3.3,0.9,33.3,4.7c30,3.8,37.2,4.7,37.4,4.7c0.2,0,0.4,16.8,0.4,37.4c0,24.3-0.2,37.4-0.4,37.4c-0.5,0-11.8-1.8-13.2-2.1
		l-1-0.2v-29.5c0-16.7-0.2-29.8-0.4-30.2c-24.7-4.6-44.4-6.8-76.7-11.4L26,347C14.9,353,5.9,357.9,6,358c33.3,6.4,40.6,7.6,80.5,15
		v43.8c0,38.9,0,43.8-0.6,43.8c-0.4,0-5.8-1-11.9-2.2c-32.7-6.4-59.7-11.5-59.9-11.4c-0.1,0.1,4.7,1.4,10.7,3
		C49.3,456,71,461.6,91,466.7l21,5.5l12.6,0.2c6.9,0.1,12.6,0.3,12.6,0.4c0,0.1,2.1-3.1,4.7-6.9c17.8-27.1,22.5-34.4,22.2-34.6
		c-0.2-0.2-2.5-0.6-5.2-1l-20.1-3c-8.3-1.2-15.3-2.2-15.4-2.2c-0.1,0-0.2-3-0.2-6.6c0-3.7,0.1-6.6,0.2-6.6c0.1,0,8,1.5,17.5,3.5
		l17.4,3.6h7.2h7.2l9.1-13.9c7.4-11.3,8.9-13.9,8.3-14.1c-0.4-0.2-6.3-1.2-13.1-2.1c-6.8-1-13.1-1.9-13.9-2.1l-1.4-0.2V381v-5.5
		l3.2,0.6c1.8,0.3,8.1,1.5,14.1,2.6c7.6,1.4,12.1,2,14.8,2h3.8l6.9-10.4c3.8-5.7,6.8-10.5,6.7-10.6c-0.1-0.1-10.9-1.4-15.7-1.9
		c-1.2-0.1-2.6-0.3-3.1-0.4l-1.1-0.2v-31.4v-31.4l-1.4-0.2C172.4,292.3,158,291,136.3,288.9L136.3,288.9z M12.4,446.4
		c-0.4,0.1-0.2,0.2,0.3,0.3c0.5,0,0.8-0.1,0.6-0.3C13.2,446.3,12.8,446.3,12.4,446.4z"/>
	
		<path id="path3361_1_" inkscape:connector-curvature="0" sodipodi:nodetypes="cccscscccccccccccccccccscccccccscsccccc" class="st2" d="
		M136.4,289.1l-10.3,5.8c-5.7,3.2-10.2,5.9-10,6.1c0.2,0.2,13.4,1.5,29.4,2.9c16,1.4,29.2,2.6,29.5,2.7c0.4,0.1,0.5,7.2,0.5,33.2
		v33.1l8-7.7l8-7.7v-31.6c0-30.5,0-31.5-0.8-31.5C171.9,292.7,160.8,291.5,136.4,289.1z M98.6,309.3L83,317.2
		c-8.6,4.3-15.4,8-15.2,8.1c0.2,0.2,15.7,2.2,34.5,4.6c18.8,2.4,34.5,4.4,35.1,4.6l1,0.2V372v37.2l4.6-4.4
		c2.5-2.4,7.8-7.7,11.7-11.5l7.2-7.1v-34.6c0-27.4-0.1-34.6-0.5-34.6C139.1,314.4,122.3,312.3,98.6,309.3z M46.2,336.4l-20.1,10.7
		C15.2,353,6.4,357.9,6.6,358c78.9,14.6,49.5,9.2,78.9,14.6l1,0.3v43.3c0,23.9,0.2,43.4,0.4,43.4c0.2,0,4.7-4.4,10-9.7
		c5.4-5.3,13.4-13.2,17.8-17.5l8.1-8v-38.6v-38.6C97.3,343.6,71.7,340,46.2,336.4z"/>
	
		<path id="path3359_1_" inkscape:connector-curvature="0" sodipodi:nodetypes="ccccsscccccccccccccccscccccccccccccccccccccccccccscccsccsssssccccssccssscccscccccccccccsscccccccsccccsscccccscscccccccscccccccccccccccccccccccccccccsccccscccscccccscccccccccccsscccsscccccsccssscsccc" class="st3" d="
		M265.3,420.1l0.2,15c0.2,14.1,0.3,15.1,1.2,17.4c2,5,4.5,7.4,9.3,8.8c4.9,1.4,12.3,0,15.8-3c4.5-4,5.1-6.8,5.1-24.4v-13.7h-4.4
		h-4.5v14.3c0,12.9-0.1,14.4-0.8,16c-2.5,5.5-9.2,5.7-11.8,0.4c-0.8-1.6-0.9-2.8-1-16.3l-0.1-14.5h-4.5L265.3,420.1z M453.4,420.3
		c-5.2-0.8-7.7,5.7-3.1,8c3.7,1.8,7.4-0.9,6.7-4.7C456.6,421.6,455.4,420.6,453.4,420.3L453.4,420.3z M480.6,420.5v7.4
		c0,7.1-0.1,7.3-0.8,6.6c-2.6-2.4-8.3-2.8-12-0.9c-10.2,5.1-9.5,23.6,1.1,27.4c3.7,1.3,8.3,0.4,10.8-2.2l1.5-1.6l0.3,1.7l0.2,1.7
		l3.9,0.1l3.8,0.2v-20.1v-20.2H485L480.6,420.5z M541.7,420.5v7.3v7.3l-1.9-1.3c-4.2-2.8-11-1.6-14.6,2.4c-2.8,3.2-3.6,6.1-3.4,11.6
		c0.3,7.2,3.1,11.6,8.8,13.3c3.3,1,7.2,0.1,9.9-2.3l2-1.8v1.8v1.8h4.1h4l-0.3-2.3c-0.2-1.3-0.3-10.3-0.3-20.1v-17.8h-4.2
		L541.7,420.5z M336.3,420.7c-3.1,1.6-2.6,6.7,0.8,8c1.8,0.7,4.9-0.4,5.7-1.9C345,422.7,340.6,418.5,336.3,420.7L336.3,420.7z
		 M388.3,432.5c-3.5,0.1-6.9,1.4-9.3,3.8c-5.6,5.6-5.6,17,0,21.9c1.9,1.7,4,2.6,6.8,3.1c3.6,0.7,12.9-0.3,13.6-1.4
		c0.2-0.2,0-1.7-0.3-3.2l-0.5-2.8l-2.2,0.5c-6.2,1.6-13.2-0.4-13.2-3.8c0-0.9,0.2-0.9,8.9-0.9h8.8l0.4-1.2
		c0.9-3.5-1.1-10.2-3.8-12.9C395.2,433.5,391.7,432.4,388.3,432.5L388.3,432.5z M420.2,432.5c-2.9,0-5.7,1.7-7.3,4.6
		c-0.4,0.7-0.5,0.4-0.7-1.6l-0.3-2.5h-3.8c-3.7,0-3.8,0-3.5,1c0.1,0.5,0.3,6.8,0.3,14v12.9h4.2h4.1l0.2-8.1c0.1-7.4,0.2-8.3,1.1-9.4
		c1.4-1.9,3.6-2.9,5.8-2.7l1.9,0.3v-4.2v-4.1L420.2,432.5z M318.2,432.6c-2.9,0.1-5.7,1.3-7.1,3.4l-0.8,1.1l-0.2-2l-0.3-2l-3.9-0.1
		l-3.9-0.2l0.3,1.4c0.2,0.8,0.4,7.1,0.4,14v12.5h4.1h4.2l0.1-8.7c0.2-10.8,0.9-12.5,5.1-12.5c3.6,0,4.1,1.8,4.1,12.6v8.6h4.5h4.5
		l-0.2-10.3c-0.2-11.2-0.4-12.4-2.9-15C324.3,433.5,321.1,432.5,318.2,432.6L318.2,432.6z M504,432.6c-3.8,0.2-9.3,1.6-9.3,2.4
		c0,0.3,1.4,5.1,1.5,5.3c0,0.1,1.2-0.3,2.5-0.8c4.7-1.8,9.2-1,10.2,1.7c0.3,0.9,0.1,1-3.8,1.4c-8.3,1-12.2,4.3-12.2,10.2
		c0,4,1.2,6.1,4.4,7.7c3.6,1.8,7.4,1.5,10.8-0.8c2-1.4,2-1.4,2,0c0,1.1,0.1,1.1,3.9,1.1h3.8l-0.2-9.6c-0.2-10.3-0.4-12-2-14.3
		C513.6,433.6,510.2,432.3,504,432.6L504,432.6z M334.5,433v14v13.9h4.2h4.2V447v-14h-4.2H334.5z M365.5,433l-1.8,6.5
		c-1,3.6-2.2,8-2.7,9.8l-0.8,3.3l-0.5-2.4c-0.3-1.3-1.4-5.7-2.6-9.8l-2.1-7.3l-4.7-0.1c-3.9-0.1-4.8,0-4.7,0.4c0.1,0.3,2.3,6.6,5,14
		l4.9,13.3h4.5h4.5l4.9-13.3c2.7-7.4,5.2-13.7,5.3-14c0.2-0.4-0.9-0.5-4.5-0.5L365.5,433z M440,433c-8.2-1.7-15.1,1.4-15.9,7.3
		c-0.6,4.2,1.8,7.5,7.3,9.5c3.6,1.4,4.5,2,4.5,3.5c0,2.5-4.6,3-9,1l-1.9-0.9l-0.7,2.9c-0.4,1.5-0.7,3-0.7,3.2c0,0.5,1.8,1.3,4.4,1.8
		c2.7,0.6,8.9,0.2,10.9-0.6c3.6-1.5,5.5-4.2,5.5-8.1c0-4.2-1.9-6.5-7.5-8.8c-3.4-1.3-4.6-2.4-4.2-3.7c0.5-1.6,3.8-2,7.3-0.8
		c2.1,0.7,2,0.8,2.7-2.3C443.2,433.9,443,433.6,440,433L440,433z M448.3,433v14v13.9h4.2h4.2V447v-14h-4.2H448.3z M388.3,438.3
		c2.2,0,4.7,2.3,4.7,4.4v1.3H388h-4.8v-1.2C383.2,441,386.2,438.3,388.3,438.3z M535.6,439.2c1.3-0.2,2.7,0,3.9,1.2
		c2.8,2.5,2.9,10.4,0.2,13c-2.5,2.4-7.2,1.3-8.6-2.1C528.9,445.9,531.9,439.9,535.6,439.2L535.6,439.2z M476.5,439.3
		c1.1,0.3,2.2,1.2,3.1,2.5c1,1.4,1.1,1.8,0.9,5.6c-0.2,4.1-0.2,4.2-1.8,5.6c-4.1,3.8-9.2,0.4-9.2-6.2
		C469.5,441.5,473.1,438.3,476.5,439.3L476.5,439.3z M507.9,448c1.4,0,1.4,0,1.4,2.2c0,1.8-0.2,2.4-1.2,3.5
		c-1.8,1.9-4.1,2.2-5.6,0.7C499.7,451.6,502.7,448,507.9,448L507.9,448z"/>
	
		<path id="path3357_1_" inkscape:connector-curvature="0" sodipodi:nodetypes="ccccscssccsccccscccscccccccscccccccccccccccccscccsccsccccsccccccscccccccsccccsscccccccccscccccccccccccccccscccscccccccccscccccccscssccccccccscccccccccccccccccsscccccccccccsssccccscccsccccccccccsccscccccccccccccccccsccccccccccccsccccccsccccccccccsscccsscssccccccsssscccscsscccscccccccscccccccssscccsccccccccccccccscsscccccccsscsccccsscscccccccssccssccccccccccccccccsccccscccccccssscccscccssscccccccccccccscccsccccscccccccscccccccccccccccccccccccccccccccccccccccssscscccsccsccccccccccccccccssccccccccccccccccccccccccsccccccsccccccccscccsccscccccccccccccsccccccccccccccccccccccsccscccccscccccsccccccccsccccccccccccccccccsccccccccccccccccsccscccccssccccccscssccccccccccccccscccsccccssccccssccccccccccccscccccccccccccccscssccccccccccccccccccccccccccccccccccccccccccccccc" class="st4" d="
		M686.6,472.8c-4.1-0.6-6.4-1.7-6-2.8c0.8-2.7,1.1-3,1.8-2.7c4.2,1.8,9.5,2.2,11.9,1c3.1-1.6,4.6-4.6,4.6-8.9v-2.9l-1.6,1.6
		c-5.6,5.5-15.3,2.7-18.3-5.3c-1.3-3.5-1.1-9.5,0.4-12.8c3.4-7.6,12.9-10.2,18.4-5c2.2,2.1,2.1,2.1,2.1-0.3v-2h2.2h2.2l0,13
		c0,17.3-0.7,21.2-4.5,24.4C696.9,472.3,691.4,473.5,686.6,472.8L686.6,472.8z M694.9,455.9c3.1-1.6,4-3.8,4-9.5
		c0-3.7-0.2-4.9-0.9-6.3c-2.9-5.6-10.7-5.3-13.5,0.5C680,450.1,686.8,460.1,694.9,455.9z M604.7,461.2c-4.1-0.7-6.7-3.8-6.7-7.9
		c0-5.9,4.8-9.5,13.2-10l3.7-0.2v-1.3c0-1.9-1.3-4.3-2.7-5c-1.8-1-6.8-0.8-9.2,0.2l-1.9,0.9l-0.4-1.2c-0.2-0.7-0.5-1.4-0.6-1.7
		c-0.6-1.7,9.1-3.4,13.1-2.2c5.7,1.7,6.7,4.2,7,17.9l0.2,10.3H618h-2.2l-0.3-1.9c-0.2-1.5-0.4-1.7-0.7-1.1
		C613.5,460,608.1,461.8,604.7,461.2L604.7,461.2z M611.2,456.9c2.7-1.4,3.5-3.1,3.4-7.1l-0.1-3.3l-2.4,0.1
		c-6.8,0.4-10.3,3.5-8.9,7.8C604.3,457.7,607.7,458.7,611.2,456.9L611.2,456.9z M655.5,461.4c-4.4-0.6-7.5-3.9-7.5-8
		c0-5.8,5-9.6,13.2-10.1l3.7-0.2v-1.5c0-2.1-1.1-4-2.7-4.8c-1.8-0.9-7.4-0.7-9.5,0.4l-1.4,0.7l-0.5-1.5c-0.6-2-0.5-2.2,2.3-3.2
		c6.6-2.3,13.2-0.6,15.6,4l1.3,2.6l0.2,10.6l0.2,10.6l-2.3,0l-2.3,0v-1.5c0-1.8-0.4-1.9-1.5-0.7
		C662.6,460.3,658.1,461.8,655.5,461.4L655.5,461.4z M662.4,456.2c2.1-1.6,2.9-3.6,2.8-7l-0.1-2.7l-2.7,0.1
		c-6.1,0.3-9.1,2.3-9.1,6.1C653.3,457.6,658.2,459.4,662.4,456.2L662.4,456.2z M723.3,461.2c-7-1-10.9-6.2-10.9-14.3
		c0-9.4,6.3-15.6,15-14.7c7.9,0.8,12,5.8,12,14.5C739.4,456.7,732.8,462.6,723.3,461.2L723.3,461.2z M728.4,457.3
		c7.4-2.8,8-16.9,0.9-20.6c-1.9-1-5.7-0.8-7.5,0.4C712.9,443.1,718.7,461,728.4,457.3z M778.6,461.3c-4-0.7-6.6-3.8-6.6-7.9
		c0-6.1,4.6-9.6,13.2-10.2l3.7-0.2v-1.3c0-1.9-1.1-4-2.6-4.9c-1.8-1.1-6.7-1-9.2,0.1l-1.9,0.9l-0.4-1.2c-0.2-0.7-0.5-1.4-0.6-1.7
		c-0.3-0.8,4.3-2.3,7.5-2.7c5.7-0.5,10.1,1.7,11.4,6c0.5,1.5,0.7,5,0.9,12.4l0.2,10.3h-2.1h-2.1l-0.3-1.8l-0.3-1.8l-1.2,1.2
		C785.8,460.7,781.8,461.9,778.6,461.3L778.6,461.3z M785.1,456.9c2.7-1.2,3.7-3.2,3.7-7c0-3.7,0.2-3.6-3.9-3.2
		c-5.6,0.6-8.5,3.2-7.9,7C777.5,457.3,781.2,458.7,785.1,456.9z M560.7,459.3c0-1.4,1.5-3.5,12.5-17.4l12.5-15.8l-12.5-0.1
		l-12.5-0.1v-2.2v-2.2h15.9h15.9l0,1.7c0,1.5-1.3,3.3-12.5,17.4l-12.5,15.7l12.5,0.1l12.5,0.1v2.2v2.2h-15.9h-15.9L560.7,459.3z
		 M629.8,447.1v-14.1c0-0.2,0.9-0.3,2.1-0.3h2.1l0.1,2.6l0.1,2.6l1.4-1.8c2-2.6,3.4-3.5,5.8-3.8l2-0.2v2.5v2.5h-1.7
		c-1.9,0-4.1,1.3-5.5,3.1c-1.2,1.6-1.7,5.5-1.7,13.6l0,7.2h-2.4h-2.4L629.8,447.1L629.8,447.1z M744.1,459.5c0-1.1,1.4-3.2,6.5-9.9
		c6.3-8.3,7.3-9.7,7.9-11.7l0.3-1l-7.4-0.1l-7.4-0.1v-2v-2l10.7-0.1l10.7-0.1v1.6c0,1.6-7.1,12.8-12.7,20.2l-1.9,2.5h8.2h8.2v2v2
		h-11.5h-11.5L744.1,459.5L744.1,459.5z M488.6,403.9c-1.1-4.3-1.2-4,0.9-4.9c2-0.9,4.3-3.2,4.3-4.4c0-0.4-1.9-5.4-4.2-11.1
		c-2.3-5.7-4.2-10.6-4.2-10.8c0-0.2,1.7-0.3,3.9-0.3l3.9,0.1l2.3,7.7c1.3,4.3,2.4,7.5,2.5,7.1c0.1-0.4,1-3.8,1.9-7.5
		c0.9-3.8,1.8-7,2-7.2c0.2-0.2,1.9-0.3,3.9-0.2l3.6,0.1l-3.6,10.2c-6.1,17-9.1,21.4-15.2,22.6C489.1,405.6,489,405.5,488.6,403.9
		L488.6,403.9z M308.9,404.3c-1.8-0.5-2.3-0.9-2.1-1.4c0.1-0.4,0.4-1.6,0.7-2.7l0.5-2l2.3,0.8c5.8,2,9.5,0.4,10.3-4.4
		c0.3-2.1,0.1-2.2-1.5-0.9c-4.6,3.6-11.7,1-13.7-5c-1-3-0.7-8.3,0.6-10.8c2.8-5.5,10.4-7.6,14.1-3.9c1.4,1.4,1.5,1.4,1.5-0.3v-1.3
		h3.1h3.1l-0.2,10.3c-0.3,16.3-0.5,17.5-3.9,20C320.5,405,313.9,405.8,308.9,404.3L308.9,404.3z M318.9,388.9
		c1.9-1.6,2.1-8.1,0.3-10.2c-1.2-1.4-3.9-1.6-5.3-0.4C308.8,383.1,313.6,393.3,318.9,388.9L318.9,388.9z M585.5,398.6v-6l-1.8,1.5
		c-4.1,3.3-10.7,1.6-13.2-3.4c-1.5-2.9-1.7-10.1-0.3-12.6c3.1-5.8,10.5-8,14.1-4.1l1,1.1l0.2-1.3c0.2-1.2,0.3-1.3,3.7-1.4l3.4-0.1
		v16.2v16.2h-3.5h-3.5L585.5,398.6L585.5,398.6z M583.2,389.6c2.9-1.8,3.3-8.4,0.6-10.8c-3.5-3.1-7.6-0.3-7.6,5.2
		C576.2,389,579.7,391.7,583.2,389.6z M339.4,395.1c-9.3-3-10-17.7-1.1-22c3-1.5,7.6-1.4,10.3,0.1c3.4,1.9,5.8,7.5,5,11.5l-0.3,1.3
		h-7.3c-7.9,0-8.1,0.1-6.4,2.3c1.4,1.7,3.1,2.3,7,2c1.9-0.1,3.7-0.4,4.1-0.5c0.6-0.2,0.8,0.2,1.1,2.1l0.4,2.4l-1.4,0.5
		C348.9,395.7,341.6,395.9,339.4,395.1L339.4,395.1z M347.3,380.9c0-0.1-0.3-0.9-0.6-1.7c-1.4-3.2-5.5-3.4-7.1-0.3
		c-1.1,2.1-1,2.2,3.5,2.2C345.4,381.2,347.3,381.1,347.3,380.9L347.3,380.9z M404.1,394.9c-9.9-3.4-9.2-19.4,1-22.4
		c7.6-2.3,13.5,2.4,13.5,10.7v2.8h-7.3c-6.8,0-7.3,0.1-7.3,0.8c0,2.9,6,4.6,11,3.2c1.7-0.5,1.8-0.3,2,2.7l0.1,2l-2,0.5
		C412,396,406.8,395.9,404.1,394.9L404.1,394.9z M411.9,380c0-3.1-4.3-4.4-6.7-2c-2.5,2.5-1.9,3.1,2.7,3.1
		C411.9,381.2,411.9,381.2,411.9,380z M455.9,395c-4.6-2.3-4.8-9.8-0.3-12.5c2-1.2,5.6-2.2,8.1-2.2c1.5,0,1.9-0.2,1.9-0.8
		c0-2.7-4.9-3.3-9.8-1.2c-0.6,0.3-1.7-2.3-1.7-4.1c0-1.5,9.7-2.6,13-1.5c4.7,1.6,5.5,3.9,5.7,14.8l0.1,7.9l-3.2,0
		c-3.2,0-3.2,0-3.2-1.2c0-1.1-0.1-1.1-0.8-0.5C463.4,395.7,458.6,396.4,455.9,395L455.9,395z M464.4,389.9c0.9-0.7,1.2-1.6,1.4-3.2
		l0.2-2.2l-2.3,0.2c-3.1,0.3-4.5,1.3-4.5,3.2C459.3,390.8,462.1,391.9,464.4,389.9L464.4,389.9z M602.8,395.3
		c-3.8-1.5-4.6-3.8-4.8-14.2l-0.2-8.7h3.6h3.6v6.6c0,9.5,0.6,11.1,3.8,11.1c3.3,0,3.7-1.1,3.7-9.9v-7.8h3.5h3.5v10.8
		c0,5.9,0.1,11.1,0.3,11.5c0.2,0.6-0.1,0.7-3,0.6l-3.3-0.1l-0.2-1.5c-0.2-1.5-0.3-1.5-0.8-0.6C611.4,395.2,605.8,396.5,602.8,395.3
		L602.8,395.3z M642.6,394.9c-2.6-1.4-3.2-3.2-3.4-10.7l-0.2-6.5h-1.5H636l0.1-2.5c0.1-2.5,0.2-2.5,1.6-2.7c1.4-0.1,1.4-0.2,1.4-2.1
		v-1.9l3-0.9c4.2-1.2,4-1.3,4,2v2.9l2.5,0.1l2.5,0.1l0.1,2.5l0.1,2.5h-2.7h-2.7v5.2c0,6.3,0.4,7.2,3.1,7.2h1.7v2.6
		c0,3.1-0.1,3.2-4.1,3.1C645.1,395.7,643.7,395.4,642.6,394.9L642.6,394.9z M662.1,395.4c-12.4-3.8-9.4-23.5,3.5-23.5
		c6,0,10.2,4.9,10.2,11.8v2.4h-7.2c-8,0-8.1,0-7.1,1.9c1.2,2.3,6.5,3.4,10.7,2.2c1.6-0.5,1.8-0.2,2,3c0.1,1.5,0,1.5-2.1,2.1
		C669.7,395.8,663.9,395.9,662.1,395.4L662.1,395.4z M669.2,380.5c0-2.9-3.7-4.8-6.1-3c-0.9,0.6-2.3,2.8-2.3,3.5
		c0,0.1,1.9,0.2,4.2,0.2C668.5,381.2,669.2,381,669.2,380.5L669.2,380.5z M686.9,395.4c-5.1-1.7-8-5.6-8-11.1
		c0-7.4,5-12.1,12.8-12.2c4.9,0,5.5,0.3,5.1,2.7c-0.5,3.1-0.4,3.1-3.3,2.9c-4.9-0.4-7.3,1.7-7.3,6.2c0,4.6,3.1,7.1,7.8,6.3l2.5-0.4
		l0.3,2.4c0.2,1.5,0.1,2.6-0.2,2.9C696.1,395.6,688.5,395.9,686.9,395.4L686.9,395.4z M706,395c-3-1.5-3.3-2.5-3.6-10.2l-0.2-6.9
		l-1.4-0.1l-1.4-0.1v-2.6v-2.6h1.5c1.5,0,1.5,0,1.7-2.1l0.1-2.1l2.9-0.8c1.6-0.4,3-0.8,3.2-0.8c0.2,0,0.3,1.3,0.3,2.9v2.9h2.7h2.7
		v2.6v2.6l-2.5,0.1l-2.5,0.1v5.4c0,6.1,0.3,6.8,2.9,6.8c1.8,0,2.2,0.8,2.2,4C714.4,395.9,709.1,396.6,706,395L706,395z M723,395.3
		c-3.9-2.1-4.6-4.6-4.6-15.1v-7.9h3.5h3.5v7.3c0,9.1,0.5,10.4,3.9,10.4c3.1,0,3.6-1.6,3.6-10.4v-7.3h3.5h3.5v11.5v11.5H737h-3.1
		v-1.6v-1.6l-1.4,1.4C730.1,395.7,725.4,396.6,723,395.3L723,395.3z M765.8,395c-2.5-1.3-3.4-2.9-3.4-6.3c0-5,3.3-7.8,9.9-8.4
		c3.4-0.3,3.9-0.8,2.3-2.3c-1.5-1.5-5.1-1.5-8.9,0.2c-0.7,0.3-1.7-2-1.7-3.8c0-2,10.1-3,13.8-1.4c4,1.8,4.8,4.1,4.9,14.9l0.1,7.4
		l-3.2,0c-3.1,0-3.2,0-3.2-1.1v-1.1l-1.8,1.2C772.2,395.9,768.1,396.2,765.8,395L765.8,395z M774.4,389.9c0.8-0.7,1.2-1.6,1.4-3.1
		l0.3-2.1h-1.6c-3.7,0-6.1,2.2-5.2,4.6C770,391.2,772.6,391.5,774.4,389.9L774.4,389.9z M265.4,379.6v-15.7h3.5h3.5v15.7v15.7h-3.5
		h-3.5V379.6z M278.7,386.8c0-4.7-0.1-9.9-0.3-11.5l-0.3-3h3.1h3.1l0.3,1.6l0.3,1.6l1.5-1.3c3-2.6,7.9-2.8,10.8-0.3
		c2.4,2,2.9,4,3.1,13.2l0.2,8.3h-3.6h-3.6l0-6.3c0-3.5-0.2-7.1-0.4-8.1c-0.8-3.3-3.5-4.3-5.8-2l-1.3,1.3v7.6v7.6h-3.5h-3.5
		L278.7,386.8L278.7,386.8z M357.9,383.8v-11.5h3.1h3.1v1.5c0,0.9,0.2,1.5,0.4,1.5c0.2,0,0.4-0.2,0.4-0.4c0-1.6,5.7-3.4,8.6-2.6
		c4.9,1.2,6,3.8,6,15v8h-3.5h-3.5v-7.3c0-4.5-0.2-7.7-0.5-8.4c-0.7-1.6-2.7-2.3-4.4-1.6c-2.3,1-2.6,2.2-2.6,10.2v7.1h-3.5h-3.5
		L357.9,383.8L357.9,383.8z M385.4,383.8v-11.5h3.5h3.5v11.5v11.5h-3.5h-3.5V383.8z M423,383.8v-11.5h2.8c3.1,0,3.4,0.2,3.4,3v1.6
		l1-1.5c1.4-2.1,3-3.1,5-3.2l1.8-0.1l0.1,3.4l0.1,3.4l-1.5-0.2c-1.8-0.3-4.3,1-5.1,2.5c-0.4,0.7-0.6,3.3-0.6,7.6l0,6.5h-3.5H423
		L423,383.8L423,383.8z M440.7,383.8v-11.5h3.5h3.5v11.5v11.5h-3.5h-3.5V383.8z M520,394.9c0-0.2,1.6-5.5,3.5-11.8
		c1.9-6.3,4-13.2,4.7-15.3l1.2-3.9l4.7,0.1l4.7,0.1l4.6,14.6c2.5,8,4.7,15.1,4.8,15.6c0.2,1,0.2,1-3.5,1h-3.8l-1.2-4l-1.2-4h-4.6
		h-4.6l-0.7,2.5c-0.4,1.4-0.9,3.2-1.2,4l-0.4,1.4h-3.5C521.6,395.3,520,395.2,520,394.9L520,394.9z M537.1,381.5
		c-0.1-0.3-0.9-3.1-1.7-6.2c-0.8-3.1-1.6-5.6-1.7-5.6c-0.2,0-2.6,9.2-3,11.6c-0.1,0.7,0.3,0.8,3.3,0.8
		C536.5,382.1,537.3,381.9,537.1,381.5L537.1,381.5z M552.3,383.8v-11.5h3.1h3.1l0.1,2.3l0.1,2.3l1-1.6c1.2-2.1,2.7-3,4.8-3.1
		l1.7-0.1l0.1,3.3l0.1,3.3l-1.5-0.2c-4.3-0.5-5.6,2-5.6,10.6l0,6.1h-3.5h-3.5L552.3,383.8L552.3,383.8z M625.4,383.8v-11.5h3.5h3.5
		v11.5v11.5h-3.5h-3.5V383.8z M745.8,383.8v-11.5h2.8h2.8l0.3,2.2l0.3,2.2l0.8-1.4c0.9-1.7,4.1-3.6,5.8-3.4c1.1,0.1,1.1,0.2,1.1,3.5
		c0,3.2,0,3.3-1,3.2c-1.6-0.2-4,0.8-5,2c-0.8,1-0.9,1.8-0.9,7.9v6.8h-3.5h-3.5L745.8,383.8z M387.1,369.1c-3.6-1.8-2.3-7,1.8-7
		c4.3,0,5.7,5.7,1.7,7C388.9,369.8,388.5,369.8,387.1,369.1L387.1,369.1z M443.5,366.1l1.9-3.5l3.2,0c3.7,0,3.7-0.3,0.2,4.1l-2.4,3
		H444h-2.4L443.5,366.1L443.5,366.1z M627.2,369.1c-1.5-0.8-2.4-2.7-2-4.3c0.9-4.1,7.7-3.2,7.7,1
		C632.9,368.5,629.6,370.4,627.2,369.1z M292.6,347.2c-2.8-0.6-3.8-1.1-3.6-1.8c0.1-0.4,0.4-1.6,0.7-2.5l0.5-1.8l2.3,0.8
		c3.1,1.1,5,1.1,6.1-0.1c1.3-1.3,0.3-2.6-3.1-3.9c-12.2-4.7-4.2-17.7,8.3-13.3c0.8,0.3,1.3,0.7,1.2,1c-0.1,0.3-0.4,1.3-0.6,2.3
		l-0.5,1.8l-2.5-0.6c-5.8-1.5-7.2,1.8-1.7,4c4.9,2,6.9,4.7,6.2,8.5C305.1,345.9,298.8,348.6,292.6,347.2L292.6,347.2z M316.4,346.7
		c-9.2-3.2-9.8-17.1-0.9-21.5c2.9-1.4,7-1.9,10-1.2c2.4,0.6,2.3,0.3,1.4,4l-0.4,1.5l-2.7-0.2c-4.4-0.2-6.7,1.3-7.3,5.1
		c-0.8,4.7,3.2,8.2,8.1,7.2c2.5-0.5,2.2-0.7,2.6,2.3l0.3,2.5l-1.7,0.5C323.2,347.7,319,347.6,316.4,346.7L316.4,346.7z M335.8,346.7
		c-3.6-1.9-4.5-5.2-4.3-15.4l0.1-7.1l3.4-0.1l3.4-0.1l0.1,7.5c0.1,6.8,0.2,7.6,1.1,8.8c1.3,1.8,3.8,2,5.3,0.3
		c1.1-1.2,1.1-1.3,1.1-8.9V324h3.5h3.5l0,10.5c0,5.8,0.1,11,0.3,11.5c0.3,1,0.2,1-2.8,1c-3.3,0-3.6-0.2-3.6-2.3
		c0-0.9-0.1-0.8-1.5,0.5C342.9,347.6,338.7,348.2,335.8,346.7L335.8,346.7z M365,346.9c-9.3-3-10-17.3-1.1-22.1
		c2.5-1.3,7.7-1.3,10.3,0c3.2,1.7,5,5.3,5,10.1v2.8h-7.3c-6.8,0-7.3,0.1-7.3,0.8c0,2.7,5.6,4.4,10.7,3.2c1.9-0.4,1.9-0.5,2.3,2.2
		c0.3,2,0.3,2.1-1.2,2.6C374.1,347.5,367.3,347.6,365,346.9L365,346.9z M372.5,331.8c0-4.1-6.5-4.3-7.9-0.2l-0.5,1.3h4.2h4.2
		L372.5,331.8L372.5,331.8z M398.6,346.5c-4.4-2.2-4.8-8.9-0.8-12c1.9-1.4,5.6-2.5,8.4-2.5c2.4,0,2.7-0.5,1.3-2.3
		c-1-1.3-5.4-1.4-8.1-0.3l-1.6,0.7l-0.5-1.7c-0.8-2.7-0.7-3,1.8-3.8c5.4-1.9,12.2-0.7,14.4,2.4c1.5,2.2,1.6,2.8,1.9,11.5l0.2,8.5
		l-3.2,0c-3.1,0-3.2,0-3.2-1.1c0-1.3-0.5-1.4-1.5-0.2C406,347.7,401.6,348,398.6,346.5L398.6,346.5z M406.6,342
		c1.5-0.8,1.8-1.5,1.8-3.8c0-1.7,0-1.7-1.5-1.7c-4.2,0-6.4,3.1-4,5.5C403.8,342.8,405,342.8,406.6,342L406.6,342z M434.9,346.5
		c-5.1-2.7-7.1-10.4-4.3-16.8c2.3-5.3,8.7-7.5,13.5-4.7l1.4,0.8v-6v-6h3.5h3.5l0,15.6c0,8.6,0.1,16.1,0.3,16.6c0.3,1,0.2,1-3.1,1
		h-3.4v-1.6v-1.6l-1.2,1.2C442.5,347.6,438.3,348.2,434.9,346.5L434.9,346.5z M444.3,340.5c1.9-1.9,1.9-7.6,0.1-9.7
		c-1.2-1.5-3.7-1.9-5.5-0.9c-3,1.6-3.1,9.7-0.1,11.5C440.4,342.2,442.9,341.8,444.3,340.5L444.3,340.5z M464.6,346.9
		c-9.3-3-10-17.3-1.1-22.1c2.5-1.3,7.7-1.3,10.3,0c3.2,1.7,5,5.3,5,10.1v2.8h-7.3c-6.8,0-7.3,0.1-7.3,0.8c0,2.7,5.6,4.4,10.7,3.2
		c1.9-0.4,1.9-0.5,2.3,2.2c0.3,2,0.3,2.1-1.2,2.6C473.7,347.5,467,347.6,464.6,346.9L464.6,346.9z M472.2,331.8
		c0-4.1-6.5-4.3-7.9-0.2l-0.5,1.3h4.2h4.2L472.2,331.8L472.2,331.8z M265.4,331.3v-15.7h9.7h9.7v2.9v2.9h-6.2h-6.2v3.3v3.3h5.8h5.8
		v2.9v2.9h-5.8h-5.8v3.8v3.8h6.4h6.4v2.9v2.9h-10h-10V331.3L265.4,331.3z M383.6,330.5v-16.6h3.5h3.5v16.6v16.6h-3.5h-3.5V330.5z"/>
</g>
<g>
	<title>logo_inycom_2013_horizontal_1</title>
	<path class="st5" d="M791.5,401.5c-3.1-0.5-6.3-0.8-9.5-0.9c-4.6,0-9.4,1.7-9.4,7.5c0,5.1,2.8,6.3,9.2,7.3c5.7,0.9,7.3,1.6,7.3,4.8
		c0,4.2-2.7,5.2-7.3,5.2c-2.9-0.2-5.8-0.5-8.7-0.9l-0.2,2.8c3,0.5,6.1,0.8,9.2,1c6.4,0,10.3-2,10.3-8.3c0-5.1-2.6-6.4-9.6-7.5
		c-5.6-0.9-6.9-1.7-6.9-4.5c0-3.6,2.9-4.5,6.3-4.5c3.1,0.1,6.2,0.4,9.2,0.9L791.5,401.5z M746.8,413.1c0-6.9,2.9-9.7,7.7-9.7
		s7.3,2.6,7.3,9.7H746.8z M754.2,425.3c-5.6,0-7.4-3.3-7.4-9.6h18.1l0.1-2.6c0-9-3.6-12.6-10.5-12.6c-6.5,0-11,3.6-11,13.9
		c0,8.9,2.4,13.7,10.4,13.8c4.2,0,10.2-0.7,10.2-0.7l-0.1-2.7C764,424.8,758.1,425.3,754.2,425.3 M731.6,394.4h3.2v-4h-3.2V394.4z
		 M731.6,427.8h3.2v-26.7h-3.2V427.8z M710.5,415.7c-4.8,0-6.2-2-6.2-6.1c0-4.8,2.2-6.2,6.3-6.2c5,0,6.7,1.1,6.7,6.2
		C717.3,414.2,715.3,415.7,710.5,415.7 M713.3,427c5,0,6.9,0.5,6.9,5c0,4-2.5,5.5-8.3,5.5c-6.6,0-8-1.5-8-5.7c0-2.3,0.8-3.3,3.4-5.1
		C707.2,426.8,711.2,427.1,713.3,427 M711.8,440.5c7.7,0,11.7-2.5,11.7-8.5c0-6.5-2.8-7.7-10-7.7c-6.3,0-6.8-0.3-6.8-2.6
		c0.3-1.1,0.6-2.2,1.1-3.3c0.9,0.1,1.8,0.2,2.7,0.2c6.8,0,10.1-2.1,10.1-8.9c0-3.1-0.7-4.6-1.8-5.7h5.2v-2.8l-7.7,0.2
		c-1.8-0.4-3.7-0.7-5.6-0.7c-5.8,0-9.6,2.6-9.6,9.1c0,5,2,7.1,4.3,8.1c0,0-1.7,3.2-1.7,4.2c0,1.6,0.4,3,1.3,3.6
		c-2.8,2.1-4.3,3.5-4.3,6.7C700.7,438.5,703.2,440.5,711.8,440.5 M682.3,425.4c-6.9,0-8-3.3-8-11.4c0-8.1,1.9-10.5,8-10.5
		c5.4,0,7.8,2.9,7.8,10.6S689.2,425.4,682.3,425.4 M682.3,400.6c-8.3,0-11.3,4-11.3,13.4c0,10.1,2.3,14.3,11.3,14.3
		c9,0,11.1-4.7,11.1-14.2C693.4,404.7,690,400.6,682.3,400.6 M658.9,427.8h3.2v-38.6h-3.2V427.8z M638.8,425.4c-6.9,0-8-3.3-8-11.4
		c0-8.1,1.9-10.5,8-10.5c5.4,0,7.8,2.9,7.8,10.6S645.7,425.4,638.8,425.4 M638.8,400.7c-8.3,0-11.3,4-11.3,13.4
		c0,10.1,2.3,14.3,11.3,14.3c9,0,11.1-4.7,11.1-14.2C649.9,404.8,646.6,400.7,638.8,400.7 M601.1,427.8v-22.1
		c2.6-1.3,5.4-2.1,8.3-2.2c5.3,0,6.1,2.6,6.1,10.4v13.8h3.1v-13.9c0-9.9-1.6-13.3-8.9-13.3c-4.1,0-8.6,2.4-8.6,2.4v-1.9h-3.2v26.7
		L601.1,427.8z M570.3,427.8v-22.5c2.6-1,5.4-1.6,8.3-1.8c5.2,0,6.1,2.6,6.1,10.4v13.8h3.2v-13.9c0-9.9-1.6-13.3-8.9-13.3
		c-3,0.1-5.9,0.8-8.6,1.9v-14h-3.2v39.3L570.3,427.8z M551.7,400.6c-7.9,0-11,3.6-11,13.3c0,10.5,2.3,14.3,10.9,14.3
		c2.3,0,7.1-0.6,7.1-0.6l-0.2-2.8c0,0-4.3,0.5-6.3,0.5c-6.9,0-8.3-3.1-8.3-11.4c0-7.6,1.9-10.4,8.3-10.4c2,0,6.3,0.5,6.3,0.5
		l0.1-2.8C558.6,401.2,553.9,400.6,551.7,400.6 M514.8,413.1c0-6.9,2.9-9.7,7.7-9.7c4.9,0,7.3,2.6,7.3,9.7H514.8z M522.2,425.3
		c-5.6,0-7.4-3.3-7.4-9.6H533l0.1-2.6c0-9-3.6-12.6-10.5-12.6c-6.5,0-11,3.6-11,13.9c0,8.9,2.4,13.7,10.4,13.8
		c4.2,0,10.2-0.7,10.2-0.7l-0.1-2.7C532,424.8,526.1,425.3,522.2,425.3 M505.2,404v-2.9h-8.9v-8.4h-3.2v8.4h-3.9v2.9h4v14.7
		c0,7.7,1.9,9.7,7.2,9.7c1.8-0.1,3.6-0.3,5.4-0.5l-0.2-2.8c0,0-3.5,0.4-5,0.4c-3.8,0-4.2-1.7-4.2-8.4v-12.9L505.2,404z"/>
	<path class="st5" d="M721.6,374.4v-22c2.6-1.3,5.4-2.1,8.3-2.2c5.3,0,6.1,2.6,6.1,10.4v13.8h3.1v-13.9c0-9.9-1.6-13.3-8.9-13.3
		c-4.1,0-8.6,2.4-8.6,2.4v-1.9h-3.2v26.7H721.6z M698.2,372c-6.9,0-8-3.3-8-11.4c0-8.1,1.9-10.5,8-10.5c5.4,0,7.8,2.9,7.8,10.6
		C706,368.3,705.1,372,698.2,372 M698.2,347.3c-8.3,0-11.3,3.9-11.3,13.4c0,10.1,2.3,14.3,11.3,14.3c9,0,11.1-4.7,11.1-14.3
		C709.3,351.4,706,347.2,698.2,347.3 M675,341.1h3.2v-4H675V341.1z M675,374.4h3.2v-26.8H675V374.4z M666.8,350.7v-3.1h-8.9v-8.4
		h-3.2v8.4h-4v2.9h3.9v14.7c0,7.7,1.9,9.7,7.2,9.7c1.8-0.1,3.6-0.3,5.4-0.5l-0.2-2.8c0,0-3.5,0.4-5,0.4c-3.8,0-4.2-1.7-4.2-8.4
		v-12.9L666.8,350.7z M639.9,360.9v9.4c-3,1.1-6.2,1.7-9.4,1.8c-2.6,0-4.2-1.9-4.2-5.3c0-2.9,1.3-4.9,4.9-5.2L639.9,360.9z
		 M643.1,355.9c0-5.9-2.6-8.5-8.2-8.5c-3.5,0.1-7,0.5-10.5,1l0.2,2.8c0,0,6.2-0.8,10.1-0.8c3.3,0,5.1,1.7,5.1,5.5v2.4l-9.1,0.9
		c-5.4,0.5-7.8,2.9-7.8,7.8c0,5.2,2.6,8.1,7.1,8.1c3.5-0.1,7-0.8,10.2-2.1c1.3,1.5,3.1,2,6,2l0.2-2.8c-1.8-0.2-3.3-0.7-3.5-2.4
		L643.1,355.9z M594.2,347.7l7.8,26.7h7l7.9-26.7h-3.3l-7,23.9h-2.2l-6.9-23.9H594.2z M577.3,372c-6.9,0-8-3.3-8-11.4
		c0-8.1,1.9-10.5,8-10.5c5.4,0,7.8,2.9,7.8,10.6C585.1,368.3,584.2,372,577.3,372 M577.3,347.3c-8.3,0-11.3,3.9-11.3,13.4
		c0,10.1,2.3,14.3,11.3,14.3c9,0,11.1-4.7,11.1-14.3C588.4,351.4,585,347.2,577.3,347.3 M539.6,374.4v-22c2.6-1.3,5.4-2.1,8.3-2.2
		c5.3,0,6.1,2.6,6.1,10.4v13.8h3.1v-13.9c0-9.9-1.6-13.3-8.9-13.3c-4.1,0-8.6,2.4-8.6,2.4v-1.9h-3.2v26.7L539.6,374.4z M508.6,374.4
		v-22c2.6-1.3,5.4-2.1,8.3-2.2c5.3,0,6.1,2.6,6.1,10.4v13.8h3.1v-13.9c0-9.9-1.6-13.3-8.9-13.3c-4.1,0-8.6,2.4-8.6,2.4v-1.9h-3.2
		v26.7L508.6,374.4z M492,341h3.2v-4H492V341z M492,374.4h3.2v-26.7H492V374.4z"/>
	<path class="st5" d="M366.8,379.8h13v5.3c1.2-1.8,2.8-3.3,4.7-4.4c2-1.3,4.3-2,6.7-2c2.6-0.1,5.2,0.5,7.4,1.7
		c1.9,1.1,3.4,2.8,4.2,4.9c2.7-4.2,7.4-6.6,12.4-6.5c5,0,8.6,1.3,10.6,3.9c2.1,2.6,3.1,6.5,3.1,11.7v21.1h-14.2v-18.2
		c0-2.7-0.4-4.6-1.1-5.7c-0.9-1.2-2.3-1.8-3.8-1.7c-1.6-0.2-3.2,0.7-3.9,2.1c-0.8,1.8-1.2,3.8-1.1,5.8v17.6h-14.1v-18.2
		c0-2.7-0.4-4.6-1.1-5.7c-0.9-1.2-2.3-1.8-3.8-1.7c-1.6-0.2-3.2,0.7-3.9,2.1c-0.8,1.8-1.2,3.8-1.1,5.8v17.6h-14.1V379.8z
		 M323.7,383.9c3.7-3.4,8.6-5.1,14.8-5.1c6.3,0,11.3,1.7,14.9,5.1c3.7,3.4,5.5,7.9,5.5,13.5c0.1,2.9-0.5,5.8-1.5,8.4
		c-1,2.3-2.4,4.4-4.3,6c-1.9,1.6-4.1,2.9-6.5,3.6c-2.6,0.8-5.3,1.2-8,1.2c-6,0-10.9-1.6-14.6-4.8c-3.8-3.2-5.7-7.8-5.7-13.7
		C318.1,392,320,387.3,323.7,383.9 M335.7,389.2c-0.8,0.5-1.5,1.3-1.9,2.2c-0.5,0.9-0.9,1.9-1.1,2.9c-0.2,1.1-0.3,2.1-0.3,3.2
		c0,3.3,0.5,5.7,1.6,7.3c1.7,2.5,5.1,3.1,7.6,1.4c0.6-0.4,1-0.9,1.4-1.4c1.1-1.6,1.6-4,1.6-7.3c0.1-2.3-0.5-4.5-1.6-6.5
		c-0.9-1.6-2.6-2.5-4.4-2.5C337.5,388.4,336.5,388.7,335.7,389.2 M296.6,393.6c0-1.4-0.5-2.7-1.5-3.7c-1-1-2.3-1.5-3.7-1.4
		c-1.1,0-2.2,0.3-3.1,0.9c-0.8,0.6-1.5,1.4-1.9,2.3c-0.5,1-0.8,2-0.9,3.1c-0.2,1.2-0.2,2.3-0.2,3.5c-0.1,2.3,0.4,4.6,1.6,6.5
		c1,1.6,2.8,2.5,4.6,2.4c1.5,0.1,2.9-0.5,3.9-1.6c0.9-1.1,1.5-2.4,1.6-3.9h14.3c-0.2,2.4-0.9,4.7-2.2,6.8c-1.1,1.9-2.7,3.5-4.5,4.7
		c-1.8,1.2-3.9,2-6,2.5c-2.4,0.6-4.8,0.8-7.2,0.8c-2.7,0-5.5-0.4-8.1-1.2c-2.4-0.8-4.6-2-6.5-3.6c-1.9-1.6-3.3-3.6-4.3-5.8
		c-1.1-2.5-1.6-5.2-1.5-7.9c0-2.8,0.5-5.5,1.5-8.1c0.9-2.3,2.4-4.4,4.2-6.1c1.9-1.7,4.1-3,6.5-3.8c2.6-0.9,5.4-1.3,8.2-1.3
		c2.4,0,4.7,0.3,7,0.8c2.2,0.5,4.2,1.3,6.1,2.5c1.8,1.2,3.3,2.8,4.4,4.6c1.2,2,1.9,4.3,2.1,6.7L296.6,393.6z M247.7,402l6.2-22h13.7
		l-11.5,33.4c-1.1,3.2-2.1,5.6-2.8,7.3c-0.7,1.5-1.6,2.9-2.9,4.1c-1.3,1.1-2.9,1.9-4.6,2.3c-2.5,0.5-5.1,0.8-7.6,0.7
		c-1.1,0-2.6-0.1-4.4-0.2c-1,0-1.6-0.1-1.9-0.1v-9.9c0.5,0,1,0,1.5,0.1h1.4c3.1,0,4.6-0.8,4.6-2.5c-0.1-0.9-0.3-1.9-0.6-2.7
		l-11.8-32.6h14.3L247.7,402z M183.6,379.8h12.9v5.6c1.4-2,3.3-3.7,5.4-5c2.1-1.1,4.4-1.7,6.7-1.6c4.6,0,8.1,1.3,10.4,3.9
		c2.3,2.6,3.4,6.4,3.4,11.4v21.4h-14.2v-18.9c0.1-1.7-0.3-3.4-1.1-4.9c-0.9-1.3-2.4-2-3.9-1.8c-2,0-3.5,0.6-4.3,1.8
		c-0.9,1.7-1.4,3.6-1.2,5.5v18.2h-14.2V379.8z M156.7,367.3h16.2v48.3h-16.2V367.3z"/>
	<path class="st5" d="M50.8,355.1c0-10-8.1-18.1-18.1-18.1s-18.1,8.1-18.1,18.1c0,10,8.1,18.1,18.1,18.1S50.8,365.2,50.8,355.1
		L50.8,355.1 M50.8,449.9v-70.6H6.7C0.2,410.9,19.6,442,50.8,449.9"/>
	<path class="st6" d="M126.5,391.4c0.2-33.2-26.5-60.3-59.7-60.5c-3.3,0-6.6,0.2-9.9,0.8v44.1c2.7-1.6,5.9-2.5,9.1-2.5
		c10,0,18.2,8.1,18.2,18.1c0,10-8.1,18.2-18.1,18.2c0,0,0,0,0,0c-3.2,0-6.3-0.9-9.1-2.5v44.1c32.8,5.2,63.6-17.1,68.8-49.8
		C126.2,398.1,126.5,394.8,126.5,391.4"/>
</g>
</svg>
