<?xml version="1.0" encoding="utf-8"?>
<!-- Generator: Adobe Illustrator 22.1.0, SVG Export Plug-In . SVG Version: 6.00 Build 0)  -->
<svg version="1.1" id="Capa_1" xmlns="http://www.w3.org/2000/svg" xmlns:xlink="http://www.w3.org/1999/xlink" x="0px" y="0px"
	 viewBox="0 0 800 800" style="enable-background:new 0 0 800 800;" xml:space="preserve">
<style type="text/css">
	.st0{clip-path:url(#SVGID_2_);}
	.st1{fill:#005896;}
	.st2{fill:#2D2C2E;}
	.st3{fill:#376FA7;}
</style>
<g>
	
		<sodipodi:namedview  bordercolor="#666666" borderopacity="1" fit-margin-bottom="20" fit-margin-left="20" fit-margin-right="20" fit-margin-top="20" gridtolerance="10" guidetolerance="10" id="namedview60" inkscape:current-layer="svg2" inkscape:cx="470.43163" inkscape:cy="114.10363" inkscape:pageopacity="0" inkscape:pageshadow="2" inkscape:window-height="840" inkscape:window-maximized="1" inkscape:window-width="1097" inkscape:window-x="55" inkscape:window-y="24" inkscape:zoom="0.52382139" objecttolerance="10" pagecolor="#ffffff" showgrid="false">
		</sodipodi:namedview>
	<g id="g10_1_" transform="matrix(1.3333333,0,0,-1.3333333,-205.53853,500.10465)">
		<g id="g12_1_">
			<g>
				<defs>
					<rect id="SVGID_1_" x="-134.1" y="-324.9" width="1131.4" height="800"/>
				</defs>
				<clipPath id="SVGID_2_">
					<use xlink:href="#SVGID_1_"  style="overflow:visible;"/>
				</clipPath>
				<g id="g14_1_" class="st0">
					<g id="g20_1_" transform="translate(326.8267,356.0918)">
						<path id="path22_1_" inkscape:connector-curvature="0" class="st1" d="M9.9-222.1V-255c0-16.8,7.8-24.3,21.1-24.3
							c13.8,0,22.1,7.8,22.1,24.1v33H41.2v-33.7c0-9.4-3.5-13.8-9.7-13.8c-6,0-9.6,4.6-9.6,13.8v33.7H9.9z"/>
					</g>
					<g id="g24_1_" transform="translate(377.4307,300.2363)">
						<path id="path26_1_" inkscape:connector-curvature="0" class="st1" d="M10.3-222.5h11.9v22.2c0,1.1,0.1,2.2,0.4,3
							c0.9,2.2,2.8,4.5,6.1,4.5c4.3,0,6-3.4,6-8.3v-21.3h11.9v22.7c0,11.3-5.9,16.6-13.7,16.6c-6.4,0-10.3-3.7-11.9-6.2h-0.2
							l-0.6,5.3H10c0.2-3.5,0.3-7.5,0.3-12.3V-222.5z"/>
					</g>
					<g id="g28_1_" transform="translate(426.9473,356.0918)">
						<path id="path30_1_" inkscape:connector-curvature="0" class="st1" d="M10.7-222.1c-3.9,0-6.4-2.6-6.4-6c0-3.3,2.4-6,6.2-6
							c4,0,6.4,2.7,6.4,6C16.9-224.7,14.5-222.1,10.7-222.1"/>
					</g>
					<path id="path32_1_" inkscape:connector-curvature="0" class="st1" d="M443.5,116.1h-11.9V77.7h11.9V116.1z"/>
					<g id="g34_1_" transform="translate(436.0781,338.3555)">
						<path id="path36_1_" inkscape:connector-curvature="0" class="st1" d="M10.8-222.2l14-38.4h11.9L51-222.2H38.4l-4.9-17.8
							c-0.9-3.3-1.5-6.2-2.1-9.4h-0.2c-0.6,3.1-1.3,6.1-2.2,9.4l-5.2,17.8H10.8z"/>
					</g>
					<g id="g38_1_" transform="translate(487.1455,323.625)">
						<path id="path40_1_" inkscape:connector-curvature="0" class="st1" d="M11.2-222.4c0.3,3.1,2.4,7.8,7.4,7.8
							c5.5,0,6.8-4.9,6.8-7.8H11.2z M36-230.5c0.2,0.9,0.4,2.7,0.4,4.7c0,9.5-4.7,19.2-17.1,19.2c-13.4,0-19.4-10.8-19.4-20.5
							c0-12,7.5-19.6,20.5-19.6c5.2,0,10,0.8,13.9,2.4l-1.6,8.1c-3.2-1.1-6.5-1.7-10.6-1.7c-5.6,0-10.5,2.4-10.8,7.3H36z"/>
					</g>
					<g id="g42_1_" transform="translate(517.0947,300.2363)">
						<path id="path44_1_" inkscape:connector-curvature="0" class="st1" d="M11.4-222.5h11.9v19.5c0,0.9,0.1,1.9,0.2,2.7
							c0.8,3.7,3.8,6.1,8.2,6.1c1.3,0,2.3-0.2,3.2-0.3v11.2c-0.9,0.2-1.4,0.2-2.5,0.2c-3.8,0-8.4-2.4-10.4-8h-0.3l-0.5,7.1H11.1
							c0.2-3.3,0.3-7,0.3-12.6V-222.5z"/>
					</g>
					<g id="g46_1_" transform="translate(542.3643,302.1094)">
						<path id="path48_1_" inkscape:connector-curvature="0" class="st1" d="M11.6-222.5c2.9-1.6,7.4-2.8,12.4-2.8
							c11,0,16.6,5.3,16.6,12.5c-0.1,5.6-3.1,9.3-10.4,11.9c-4.7,1.6-6.2,2.6-6.2,4.5c0,1.9,1.6,3.1,4.6,3.1c3.2,0,6.6-1.3,8.3-2.2
							l2,8.2c-2.4,1.2-6.3,2.3-10.8,2.3c-9.5,0-15.6-5.4-15.6-12.7c-0.1-4.6,3-8.9,11-11.5c4.4-1.5,5.6-2.4,5.6-4.5
							c0-2-1.5-3.1-5.1-3.1c-3.5,0-8.1,1.5-10.3,2.8L11.6-222.5z"/>
					</g>
					<g id="g50_1_" transform="translate(582.2061,356.0918)">
						<path id="path52_1_" inkscape:connector-curvature="0" class="st1" d="M11.9-222.1c-3.9,0-6.4-2.6-6.4-6c0-3.3,2.4-6,6.2-6
							c4,0,6.4,2.7,6.4,6C18.1-224.7,15.8-222.1,11.9-222.1"/>
					</g>
					<path id="path54_1_" inkscape:connector-curvature="0" class="st1" d="M600,116.1h-11.9V77.7H600V116.1z"/>
					<g id="g56_1_" transform="translate(620.4932,317.2324)">
						<path id="path58_1_" inkscape:connector-curvature="0" class="st1" d="M12.2-222.4c0-0.9-0.1-1.9-0.2-2.8
							c-0.7-3.4-3.5-5.7-7-5.7c-4.9,0-8.2,4.1-8.2,10.6c0,6.1,2.8,10.9,8.3,10.9c3.7,0,6.3-2.7,7-5.8c0.2-0.7,0.2-1.6,0.2-2.2
							V-222.4z M12.2-183.7v-20.8h-0.2c-1.7,2.6-5.3,4.3-10.1,4.3c-9.2,0-17.3-7.5-17.2-20.5c0-11.9,7.3-19.7,16.4-19.7
							c5,0,9.7,2.2,12,6.4h0.2l0.5-5.6h10.6c-0.2,2.6-0.3,7.2-0.3,11.5v44.4H12.2z"/>
					</g>
					<g id="g60_1_" transform="translate(659.9482,314.1133)">
						<path id="path62_1_" inkscape:connector-curvature="0" class="st1" d="M12.5-222.4c0-0.7-0.1-1.4-0.2-2
							c-0.8-2.4-3.3-4.4-6.2-4.4c-2.7,0-4.7,1.5-4.7,4.6c0,4.6,4.9,6,11.2,6L12.5-222.4z M24.1-213.7c0,9.1-4,16.7-16.8,16.7
							c-7,0-12.3-2-14.9-3.5l2.2-7.7c2.5,1.6,6.7,2.9,10.6,2.9c5.9,0,7-2.9,7-5v-0.5c-13.6,0-22.6-4.7-22.6-14.7
							c0-6.1,4.6-11.8,12.4-11.8c4.6,0,8.5,1.6,11,4.7h0.2l0.7-3.8h10.8c-0.5,2.1-0.6,5.7-0.6,9.3V-213.7z"/>
					</g>
					<g id="g64_1_" transform="translate(703.7705,317.2324)">
						<path id="path66_1_" inkscape:connector-curvature="0" class="st1" d="M12.9-222.4c0-0.9-0.1-1.9-0.2-2.8
							c-0.7-3.4-3.5-5.7-7-5.7c-5,0-8.2,4.1-8.2,10.6c0,6.1,2.7,10.9,8.3,10.9c3.7,0,6.3-2.7,7-5.8c0.2-0.7,0.2-1.6,0.2-2.2V-222.4z
							 M12.9-183.7v-20.8h-0.2c-1.7,2.6-5.3,4.3-10.1,4.3c-9.2,0-17.3-7.5-17.2-20.5c0-11.9,7.3-19.7,16.4-19.7c5,0,9.7,2.2,12,6.4
							h0.2l0.5-5.6h10.6c-0.2,2.6-0.3,7.2-0.3,11.5v44.4H12.9z"/>
					</g>
					<g id="g68_1_" transform="translate(390.5942,262.8828)">
						<path id="path70_1_" inkscape:connector-curvature="0" class="st2" d="M10.4-222.8c0,5.9-2.2,12.1-11.3,12.1
							c-3.8,0-7.4-1-9.9-2.6l1.2-3.6c2.1,1.4,5,2.2,7.8,2.2c6.1,0.1,6.8-4.4,6.8-6.8v-0.6c-11.5,0.1-17.9-3.9-17.9-11.1
							c0-4.3,3.1-8.6,9.1-8.6c4.3,0,7.5,2.1,9.1,4.4h0.2l0.4-3.8h4.9c-0.3,2-0.4,4.6-0.4,7.2V-222.8z M5.2-231.1
							c0-0.5-0.1-1.1-0.2-1.7c-0.9-2.5-3.4-5-7.3-5c-2.7,0-5.1,1.6-5.1,5.2c0,5.8,6.7,6.8,12.6,6.7L5.2-231.1"/>
					</g>
					<g id="g72_1_" transform="translate(400.9814,244.7109)">
						<path id="path74_1_" inkscape:connector-curvature="0" class="st2" d="M10.5-223h5.4v15.9c0,0.9,0.1,1.8,0.2,2.5
							c0.7,4.1,3.5,6.9,7.3,6.9c0.7,0,1.3,0,1.9-0.1v5.1c-0.5,0.1-0.9,0.1-1.5,0.1c-3.6,0-7-2.5-8.3-6.5h-0.2l-0.2,5.9h-4.7
							c0.2-2.8,0.2-5.8,0.2-9.3V-223"/>
					</g>
					<g id="g76_1_" transform="translate(443.1777,262.8828)">
						<path id="path78_1_" inkscape:connector-curvature="0" class="st2" d="M10.8-222.8c0,5.9-2.2,12.1-11.3,12.1
							c-3.8,0-7.4-1-9.9-2.6l1.2-3.6c2.1,1.4,5,2.2,7.8,2.2c6.1,0.1,6.8-4.4,6.8-6.8v-0.6c-11.5,0.1-17.9-3.9-17.9-11.1
							c0-4.3,3.1-8.6,9.1-8.6c4.3,0,7.5,2.1,9.1,4.4H6l0.4-3.8h4.9c-0.3,2-0.4,4.6-0.4,7.2V-222.8z M5.6-231.1
							c0-0.5-0.1-1.1-0.2-1.7c-0.9-2.5-3.4-5-7.3-5c-2.7,0-5.1,1.6-5.1,5.2c0,5.8,6.7,6.8,12.6,6.7V-231.1"/>
					</g>
					<g id="g80_1_" transform="translate(478.8965,266.2461)">
						<path id="path82_1_" inkscape:connector-curvature="0" class="st2" d="M11.1-222.8c0,3.6,0.1,6,0.2,8.1H6.5l-0.2-4.5H6.2
							c-1.4,2.5-4.1,5.1-9.3,5.1c-6.9,0-13.5-5.7-13.5-15.8c0-8.3,5.3-14.6,12.7-14.6c4.6,0,7.9,2.2,9.5,5h0.1v-3.3
							c0-7.6-4.1-10.5-9.6-10.5c-3.7,0-6.8,1.1-8.8,2.4l-1.4-4.2c2.4-1.6,6.3-2.5,9.9-2.5c3.8,0,8,0.9,10.9,3.6
							c2.8,2.6,4.3,6.8,4.3,13.7V-222.8z M5.7-231.8c0-0.9-0.1-2-0.4-2.9c-1.1-3.5-4.1-5.6-7.5-5.6c-5.8,0-8.8,4.9-8.8,10.7
							c0,6.9,3.7,11.3,8.9,11.3c4,0,6.6-2.6,7.6-5.8c0.2-0.7,0.3-1.5,0.3-2.4L5.7-231.8"/>
					</g>
					<g id="g84_1_" transform="translate(502.0098,274.9336)">
						<path id="path86_1_" inkscape:connector-curvature="0" class="st2" d="M11.3-222.7c-8.2,0-14.8-5.9-14.8-15.8
							c0-9.4,6.3-15.4,14.3-15.4c7.2,0,14.9,4.8,14.9,15.9C25.7-229,19.9-222.7,11.3-222.7 M11.2-226.8c6.4,0,8.9-6.3,8.9-11.4
							c0-6.7-3.9-11.6-9.1-11.6c-5.3,0-9,4.9-9,11.5C2-232.7,4.8-226.8,11.2-226.8"/>
					</g>
					<g id="g88_1_" transform="translate(520.958,244.7109)">
						<path id="path90_1_" inkscape:connector-curvature="0" class="st2" d="M11.4-223h24.2v4.3H18.2v0.1c1.4,1.5,2.5,3,3.8,4.7
							l11.6,17.3v3.4H11v-4.3h16.2v-0.1c-1.4-1.6-0.9-3-2.2-4.7l-13.4-17.6V-223"/>
					</g>
					<g id="g92_1_" transform="translate(573.001,262.8828)">
						<path id="path94_1_" inkscape:connector-curvature="0" class="st2" d="M11.9-222.8c0,5.9-2.2,12.1-11.3,12.1
							c-3.8,0-7.4-1-9.9-2.6l1.2-3.6c2.1,1.4,5,2.2,7.8,2.2c6.1,0.1,6.8-4.4,6.8-6.8v-0.6c-11.5,0.1-17.9-3.9-17.9-11.1
							c0-4.3,3.1-8.6,9.1-8.6c4.2,0,7.5,2.1,9.1,4.4H7l0.4-3.8h4.9c-0.3,2-0.4,4.6-0.4,7.2V-222.8z M6.6-231.1
							c0-0.5-0.1-1.1-0.3-1.7c-0.9-2.5-3.4-5-7.3-5c-2.7,0-5.1,1.6-5.1,5.2c0,5.8,6.7,6.8,12.6,6.7L6.6-231.1"/>
					</g>
					<g id="g96_1_" transform="translate(328.5146,244.7109)">
						<path id="path98_1_" inkscape:connector-curvature="0" class="st2" d="M9.9-223h33.9v4.5H17v0.2l26.6,33.6v3.3H9.9v-4.5h26.7
							v-0.2L9.9-219.8V-223z"/>
					</g>
					<g id="g100_1_" transform="translate(195.7954,206.418)">
						<path id="path102_1_" inkscape:connector-curvature="0" class="st3" d="M8.9-223.3h2.9v12.8H9.3l-3.4-1.6l0.5-2.2l2.4,1.2h0
							V-223.3z"/>
					</g>
					<g id="g104_1_" transform="translate(215.9946,219.0996)">
						<path id="path106_1_" inkscape:connector-curvature="0" class="st3" d="M9-223.2H2l-0.8-6.7c0.5,0.1,1,0.1,1.7,0.1
							c2.6,0,3.6-0.8,3.6-2.1c0-1.3-1.3-1.9-2.6-1.9c-1.2,0-2.3,0.4-2.9,0.6l-0.5-2.2c0.7-0.4,2-0.7,3.6-0.7c3.4,0,5.5,2.1,5.5,4.5
							c0,1.5-0.6,2.6-1.5,3.2c-0.9,0.6-2.1,0.9-3.4,0.9c-0.3,0-0.5,0-0.8,0l0.3,1.9h5L9-223.2z"/>
					</g>
					<g id="g108_1_" transform="translate(225.4194,211.6699)">
						<path id="path110_1_" inkscape:connector-curvature="0" class="st3" d="M9.1-223.2L9.1-223.2l1.7,2.8c0.4,0.8,0.8,1.6,1.2,2.4
							h0c0-0.8-0.1-1.6-0.1-2.4v-2.8H9.1z M14.8-228.5v3.1h1.5v2.2h-1.5v7.5h-3.7l-4.8-7.8v-1.9H12v-3.1H14.8z"/>
					</g>
					<g id="g112_1_" transform="translate(247.5688,206.418)">
						<path id="path114_1_" inkscape:connector-curvature="0" class="st3" d="M9.3-223.3v2.5H4.4v0l1.2,1c1.9,1.7,3.4,3.4,3.4,5.5
							c0,2.3-1.6,4-4.5,4c-1.7,0-3.2-0.6-4.2-1.3l0.8-2.1c0.7,0.5,1.6,1,2.7,1c1.5,0,2.1-0.8,2.1-1.9c0-1.5-1.4-2.9-4.2-5.4
							l-1.6-1.5v-1.8H9.3z"/>
					</g>
					<g id="g116_1_" transform="translate(230.6929,288.6055)">
						<path id="path118_1_" inkscape:connector-curvature="0" class="st1" d="M9.1-222.6c0,1-0.8,1.8-1.8,1.8c-1,0-1.8-0.8-1.8-1.8
							c0-1,0.8-1.8,1.8-1.8C8.3-224.5,9.1-223.6,9.1-222.6 M-8.5-224.5c1,0,1.8,0.8,1.8,1.8c0,1-0.8,1.8-1.8,1.8
							c-1,0-1.8-0.8-1.8-1.8C-10.3-223.6-9.5-224.5-8.5-224.5 M-8.3-259.2H7.6c0.9,0,1.8,0.6,1.8,1.7v22.3c0,5.4-4.3,9.7-9.7,9.7
							c-5.4,0-9.7-4.3-9.7-9.7v-22.3C-10.1-258.6-9.2-259.2-8.3-259.2 M21.1-167c-1.9,0-3.4-1.5-3.4-3.4v-6.1c0-0.4,0.3-0.6,0.6-0.6
							H24c0.3,0,0.6,0.2,0.6,0.6v6.1C24.6-168.5,23-167,21.1-167 M19.4-259h11.4c0.6,0,1.2,0.4,1.2,1.2v21.5c0,3.8-3.1,6.9-6.9,6.9
							c-3.8,0-6.9-3.1-6.9-6.9v-21.5C18.1-258.6,18.7-259,19.4-259 M31.8-225.7c0,1-0.8,1.8-1.8,1.8c-1,0-1.8-0.8-1.8-1.8
							c0-1,0.8-1.8,1.8-1.8C30.9-227.5,31.8-226.7,31.8-225.7 M19.8-227.5c1,0,1.8,0.8,1.8,1.8c0,1-0.8,1.8-1.8,1.8
							c-1,0-1.8-0.8-1.8-1.8C18-226.7,18.8-227.5,19.8-227.5 M-39.1-263.8h78.3v3.4h-78.3V-263.8z M34.9-177.2
							c0.3,0,0.6,0.2,0.6,0.6v6.1c0,1.9-1.5,3.4-3.4,3.4c-1.9,0-3.4-1.5-3.4-3.4v-6.1c0-0.4,0.3-0.6,0.6-0.6H34.9z M-45.9-270.9H46
							v5.1h-91.9V-270.9z M-32.3-257.9c0-0.8,0.6-1.2,1.2-1.2h11.4c0.6,0,1.2,0.4,1.2,1.2v21c0,3.8-3.1,6.9-6.9,6.9
							c-3.8,0-6.9-3.1-6.9-6.9V-257.9z M-31.1-167c-1.9,0-3.4-1.5-3.4-3.4v-6.1c0-0.4,0.3-0.6,0.6-0.6h5.6c0.3,0,0.6,0.2,0.6,0.6
							v6.1C-27.7-168.5-29.2-167-31.1-167 M-28.6-225.7c0,1-0.8,1.8-1.8,1.8c-1,0-1.8-0.8-1.8-1.8c0-1,0.8-1.8,1.8-1.8
							C-29.4-227.5-28.6-226.7-28.6-225.7 M-20.8-167c-1.9,0-3.4-1.5-3.4-3.4v-6.1c0-0.4,0.3-0.6,0.6-0.6h5.6c0.3,0,0.6,0.2,0.6,0.6
							v6.1C-17.4-168.5-18.9-167-20.8-167 M-32.3-194.2v-12.4c0-0.8,0.6-1.2,1.2-1.2h11.4c0.6,0,1.2,0.4,1.2,1.2v12.4
							c0,3.8-3.1,6.9-6.9,6.9C-29.2-187.3-32.3-190.4-32.3-194.2 M-18.5-225.7c0,1-0.8,1.8-1.8,1.8c-1,0-1.8-0.8-1.8-1.8
							c0-1,0.8-1.8,1.8-1.8C-19.3-227.5-18.5-226.7-18.5-225.7 M-52.9-279.5H52.9v6.4H-52.9V-279.5z M-1.9-211.7h3.7
							c0.2,0,0.4-0.1,0.4-0.4v-2.9c0-1.3-1-2.3-2.3-2.3c-1.2,0-2.3,1-2.3,2.3v2.9C-2.3-211.8-2.1-211.7-1.9-211.7 M18-218.6
							l-18.1,9.8l-18.4-9.6L18-218.6z M-11-210.7c0-0.4,0.4-0.8,0.8-0.8c0.4,0,0.8,0.4,0.8,0.8c0,0.4-0.4,0.8-0.8,0.8
							C-10.6-209.9-11-210.2-11-210.7 M2.9-177.2c0.3,0,0.6,0.2,0.6,0.6v6.1c0,1.9-1.5,3.4-3.4,3.4c-1.9,0-3.4-1.5-3.4-3.4v-6.1
							c0-0.4,0.3-0.6,0.6-0.6H2.9z M18.2-194.2v-12.4c0-0.8,0.6-1.2,1.2-1.2h11.4c0.6,0,1.2,0.4,1.2,1.2v12.4c0,3.8-3.1,6.9-6.9,6.9
							C21.3-187.3,18.2-190.4,18.2-194.2 M-8.1-208.5c-0.7,0-1.2-0.6-1.2-1.2s0.6-1.2,1.2-1.2c0.7,0,1.2,0.6,1.2,1.2
							S-7.4-208.5-8.1-208.5 M38-153.2l4.8,2.6h-85.7l3-2.6H38z M46.1-160.3l5.7,5.7H-50.6l3.6-5.7H46.1z M-6.8-170.4
							c0,1.9-1.5,3.4-3.4,3.4s-3.4-1.5-3.4-3.4v-6.1c0-0.4,0.3-0.6,0.6-0.6h5.6c0.3,0,0.6,0.2,0.6,0.6V-170.4z M-6.8-194.2v-12
							l6.8,3.2l7.1-3.5v12.2c0,3.8-3.1,6.9-6.9,6.9C-3.7-187.3-6.8-190.4-6.8-194.2 M-3.1-208.4c0.7,0,1.2,0.6,1.2,1.2
							c0,0.7-0.6,1.2-1.2,1.2c-0.7,0-1.2-0.6-1.2-1.2C-4.4-207.8-3.8-208.4-3.1-208.4 M-5.6-207.3c-0.7,0-1.2-0.6-1.2-1.2
							c0-0.7,0.6-1.2,1.2-1.2c0.7,0,1.2,0.6,1.2,1.2C-4.3-207.9-4.9-207.3-5.6-207.3 M-1.8-206.2c0-0.9,0.8-1.7,1.7-1.7
							c0.9,0,1.7,0.8,1.7,1.7c0,0.9-0.8,1.7-1.7,1.7C-1-204.5-1.8-205.2-1.8-206.2 M14.2-176.6v6.1c0,1.9-1.5,3.4-3.4,3.4
							c-1.9,0-3.4-1.5-3.4-3.4v-6.1c0-0.4,0.3-0.6,0.6-0.6h5.6C13.9-177.2,14.2-177,14.2-176.6 M9.3-210.7c0-0.4,0.4-0.8,0.8-0.8
							c0.4,0,0.8,0.4,0.8,0.8c0,0.4-0.4,0.8-0.8,0.8C9.7-209.9,9.3-210.2,9.3-210.7 M2.9-205.9c-0.7,0-1.2-0.6-1.2-1.2
							c0-0.7,0.6-1.2,1.2-1.2c0.7,0,1.2,0.6,1.2,1.2C4.2-206.5,3.6-205.9,2.9-205.9 M6.6-209.7c0-0.7,0.6-1.2,1.2-1.2
							c0.7,0,1.2,0.6,1.2,1.2s-0.6,1.2-1.2,1.2C7.1-208.5,6.6-209,6.6-209.7 M5.3-209.8c0.7,0,1.2,0.6,1.2,1.2
							c0,0.7-0.6,1.2-1.2,1.2c-0.7,0-1.2-0.6-1.2-1.2C4.1-209.2,4.6-209.8,5.3-209.8"/>
					</g>
				</g>
			</g>
		</g>
	</g>
</g>
</svg>
