<?xml version="1.0" encoding="utf-8"?>
<!-- Generator: Adobe Illustrator 16.0.0, SVG Export Plug-In . SVG Version: 6.00 Build 0)  -->
<!DOCTYPE svg PUBLIC "-//W3C//DTD SVG 1.1//EN" "http://www.w3.org/Graphics/SVG/1.1/DTD/svg11.dtd">
<svg version="1.1" id="Capa_1" xmlns="http://www.w3.org/2000/svg" xmlns:xlink="http://www.w3.org/1999/xlink" x="0px" y="0px"
	 width="402.366px" height="184px" viewBox="0 0 402.366 184" enable-background="new 0 0 402.366 184" xml:space="preserve">
<g>
	<g>
		<path fill-rule="evenodd" clip-rule="evenodd" fill="#008BD2" d="M67.596,43.895c-26.142,0-39.289,21.399-39.289,43.562
			c0,23.234,10.549,39.437,37.455,39.437c17.122,0,28.587-7.948,29.352-8.713l-6.728-16.814c-4.891,3.209-11.619,6.421-18.955,6.421
			c-9.325,0-14.522-5.655-15.134-12.533c14.98-0.92,40.052-5.351,40.052-27.515C94.349,51.69,83.647,43.895,67.596,43.895z
			 M72.182,68.044c0,7.49-10.854,11.312-19.109,11.77c0.46-10.544,5.505-18.036,13.146-18.036
			C69.889,61.778,72.182,64.225,72.182,68.044z"/>
		<path fill-rule="evenodd" clip-rule="evenodd" fill="#E30613" d="M204.062,108.245c7.492,0,10.396-7.488,10.396-22.469
			c0-15.59-2.599-23.539-10.396-23.539c-7.185,0-10.395,8.102-10.395,20.789C193.667,96.17,195.044,108.245,204.062,108.245z
			 M169.888,69.518c5.782-19.201,21.848-25.623,35.244-25.623c12.23,0,35.772,3.667,35.772,39.588
			c0,28.736-16.815,43.411-37.911,43.411c-17.896,0-30.157-8.811-34.016-27.267c1.309-5.23,1.978-11.128,1.978-17.673
			C170.956,77.445,170.592,73.296,169.888,69.518z"/>
		<path fill-rule="evenodd" clip-rule="evenodd" fill="#BCCF00" d="M280.804,106.563c5.352,0,9.783-1.681,16.051-6.112l9.021,17.271
			c-7.033,5.505-16.662,9.019-28.741,9.019c-18.704,0-31.713-9.255-35.872-27.102c1.299-4.82,2.001-10.21,2.001-16.155
			c0-5.014-0.444-9.436-1.245-13.334c5.572-18.543,20.915-26.254,35.576-26.254c11.006,0,22.167,3.667,29.962,15.896l-15.593,13.299
			c-3.67-5.045-7.645-9.02-13.299-9.02c-8.409,0-13.149,7.491-13.149,21.094C265.516,98.769,270.563,106.563,280.804,106.563z"/>
		<path fill-rule="evenodd" clip-rule="evenodd" fill="#DE0076" d="M372.376,50.009c-12.383-4.74-24.154-6.114-29.657-6.114
			c-27.823,0-41.43,18.036-41.43,44.938c0,19.106,5.962,37.907,29.353,37.907c7.949,0,15.133-2.446,19.72-9.63l0.918,0.153
			l1.068,7.185h21.71l-1.682-16.509V50.009z M347,99.838c0,4.433-3.363,8.712-9.325,8.712c-8.866,0-11.009-9.781-11.009-21.551
			c0-13.145,3.365-25.068,13.301-25.068c2.753,0,5.352,0.457,7.033,1.07V99.838z"/>
		<path fill-rule="evenodd" clip-rule="evenodd" fill="#FDC300" d="M97.512,120.473c6.726,3.516,20.485,6.421,32.102,6.421
			c24.92,0,38.983-15.132,38.983-44.939c0-25.527-11.771-38.06-30.729-38.06c-5.962,0-11.311,1.68-14.675,3.667V18.213H97.512
			V120.473z M123.194,69.27c0-4.435,3.517-7.339,7.796-7.339c10.091,0,12.079,11.005,12.079,23.387
			c0,14.521-2.296,23.844-12.23,23.844c-2.599,0-5.351-0.611-7.645-1.527V69.27z"/>
	</g>
	<g>
		<path d="M107.889,142.458v-6.703h2.556v20.076l0.266,2.985h-2.29l-0.232-1.99l-0.133-0.033c-1.294,1.825-3.119,2.488-4.878,2.488
			c-4.845,0-6.471-3.815-6.471-8.229c0-5.575,2.788-9.192,7.766-9.192C105.798,141.861,106.828,142.093,107.889,142.458z
			 M107.889,144.649c-0.763-0.398-1.99-0.798-3.517-0.798c-3.617,0-5.11,3.021-5.11,6.903c0,3.417,0.929,6.536,4.313,6.536
			c2.721,0,4.313-1.892,4.313-3.55V144.649z"/>
		<path d="M116.653,135.888c0.962,0,1.725,0.764,1.725,1.726c0,1.028-0.763,1.759-1.758,1.759c-0.996,0-1.692-0.73-1.692-1.759
			C114.927,136.652,115.657,135.888,116.653,135.888z M115.358,158.817v-16.492h2.589v16.492H115.358z"/>
		<path d="M122.328,155.832c0.962,0.663,2.588,1.459,4.513,1.459c1.858,0,3.285-0.862,3.285-2.819c0-1.926-1.493-2.522-3.418-2.987
			c-2.654-0.631-5.011-1.46-5.011-4.745c0-3.318,2.654-4.878,5.542-4.878c2.355,0,4.313,1.029,5.509,2.224l-1.494,1.526
			c-1.095-1.029-2.422-1.792-4.114-1.792c-1.427,0-3.02,0.729-3.02,2.555c0,1.958,1.626,2.423,3.518,2.987
			c2.389,0.729,5.01,1.526,5.01,4.877c0,3.252-2.389,5.044-5.773,5.044c-2.688,0-4.845-0.995-5.541-1.592L122.328,155.832z"/>
		<path d="M138.822,165.786h-2.588v-25.02c0-2.323,0.563-5.575,5.342-5.575c1.295,0,3.152,0.465,4.049,0.963l-0.73,1.924
			c-0.862-0.431-2.123-0.796-3.251-0.796c-2.157,0-2.821,1.229-2.821,3.418v1.625h5.21v2.224h-5.21V165.786z"/>
		<path d="M149.209,158.817h-2.555v-14.235l-0.199-2.257h2.224l0.298,2.39c0.797-1.858,2.257-2.854,4.148-2.854
			c1.028,0,1.99,0.232,2.621,0.63l-0.796,2.291c-0.564-0.3-1.328-0.631-2.157-0.631c-2.124,0-3.484,1.924-3.584,4.147V158.817z"/>
		<path d="M171.012,142.325v14.07l0.232,2.422h-2.289l-0.266-2.256h-0.066c-1.229,1.892-3.219,2.721-5.21,2.721
			c-3.551,0-5.343-1.857-5.343-5.674v-11.283h2.589v10.553c0,2.489,0.497,4.381,3.418,4.381c2.322,0,4.38-2.058,4.38-3.982v-10.951
			H171.012z"/>
		<path d="M178.514,135.755v6.569h4.712v2.224h-4.712v9.823c0,2.189,0.863,2.887,2.423,2.887c1.128,0,1.958-0.465,2.521-0.797
			l0.764,1.726c-0.962,0.664-2.423,1.095-3.75,1.095c-4.413,0-4.546-2.555-4.546-4.977v-18.55H178.514z"/>
		<path d="M199.189,155.93l0.266,2.887h-2.322l-0.199-1.957l-0.1-0.033c-0.83,1.194-2.257,2.455-4.845,2.455
			c-4.612,0-6.57-3.186-6.57-7.997c0-5.873,2.82-9.424,8.329-9.424c1.028,0,3.318,0.266,5.441,1.062V155.93z M196.634,144.45
			c-0.598-0.266-1.925-0.564-3.318-0.564c-3.982,0-5.343,3.252-5.343,7.499c0,2.887,0.863,5.974,4.348,5.974
			c2.787,0,4.313-1.925,4.313-3.783V144.45z"/>
		<path d="M223.051,145.976c0,4.911-5.906,5.707-9.125,5.707c-0.332,0-0.599-0.033-0.863-0.033c0.133,2.722,1.46,5.574,4.978,5.574
			c2.224,0,3.616-1.061,4.247-1.526l0.996,1.693c-0.83,0.696-2.754,1.891-5.409,1.891c-5.177,0-7.366-3.518-7.366-8.462
			c0-4.911,2.654-8.959,7.698-8.959C221.292,141.861,223.051,143.52,223.051,145.976z M218.073,143.786
			c-3.55,0-4.91,3.352-5.01,5.973c0.199,0,0.398,0.033,0.664,0.033c2.257,0,6.901-0.53,6.901-3.518
			C220.628,144.714,219.567,143.786,218.073,143.786z"/>
		<path d="M229.059,135.755v18.416c0,2.224,0.432,3.053,2.091,3.053c0.763,0,1.56-0.231,2.224-0.563l0.597,1.792
			c-0.697,0.465-2.024,0.829-3.385,0.829c-3.882,0-4.081-2.555-4.081-4.745v-18.781H229.059z"/>
		<path d="M243.861,158.817v-14.002l-0.232-2.49h2.157l0.299,2.356c1.16-1.825,3.053-2.82,5.076-2.82c2.19,0,3.85,0.896,4.745,3.086
			c1.062-2.057,3.053-3.086,5.144-3.086c3.418,0,5.311,2.058,5.311,5.841v11.115h-2.556v-10.419c0-2.355-0.498-4.479-3.418-4.479
			c-2.29,0-3.982,1.925-3.982,3.949v10.949h-2.556v-10.386c0-2.123-0.332-4.513-3.417-4.513c-2.356,0-4.016,2.024-4.016,4.115
			v10.783H243.861z"/>
		<path d="M277.613,141.861c2.289,0,6.802,0.73,6.802,8.229c0,6.471-3.219,9.191-7.366,9.191c-4.214,0-6.802-2.854-6.802-8.826
			C270.247,143.586,274.328,141.861,277.613,141.861z M281.793,150.654c0-3.98-1.161-6.769-4.38-6.769
			c-3.153,0-4.579,2.654-4.579,6.238c0,3.285,0.663,7.167,4.445,7.167C280.433,157.291,281.793,154.271,281.793,150.654z"/>
		<path d="M288.499,158.817v-14.002l-0.232-2.49h2.157l0.299,2.356c1.161-1.825,3.053-2.82,5.077-2.82
			c2.189,0,3.849,0.896,4.745,3.086c1.062-2.057,3.053-3.086,5.144-3.086c3.417,0,5.309,2.058,5.309,5.841v11.115h-2.555v-10.419
			c0-2.355-0.498-4.479-3.417-4.479c-2.291,0-3.983,1.925-3.983,3.949v10.949h-2.555v-10.386c0-2.123-0.332-4.513-3.418-4.513
			c-2.355,0-4.015,2.024-4.015,4.115v10.783H288.499z"/>
		<path d="M327.493,145.976c0,4.911-5.906,5.707-9.125,5.707c-0.331,0-0.597-0.033-0.862-0.033c0.132,2.722,1.46,5.574,4.978,5.574
			c2.224,0,3.617-1.061,4.248-1.526l0.995,1.693c-0.83,0.696-2.755,1.891-5.409,1.891c-5.177,0-7.367-3.518-7.367-8.462
			c0-4.911,2.655-8.959,7.699-8.959C325.735,141.861,327.493,143.52,327.493,145.976z M322.516,143.786
			c-3.551,0-4.911,3.352-5.011,5.973c0.199,0,0.398,0.033,0.663,0.033c2.257,0,6.902-0.53,6.902-3.518
			C325.071,144.714,324.009,143.786,322.516,143.786z"/>
		<path d="M330.914,158.817v-14.002l-0.166-2.49h2.224l0.299,2.39c1.26-1.858,3.186-2.854,5.342-2.854
			c3.418,0,5.275,1.925,5.275,5.708v11.248H341.3v-10.452c0-2.456-0.531-4.446-3.318-4.446c-2.556,0-4.48,2.091-4.48,4.081v10.817
			H330.914z"/>
		<path d="M351.291,135.755v6.569h4.713v2.224h-4.713v9.823c0,2.189,0.863,2.887,2.422,2.887c1.13,0,1.959-0.465,2.522-0.797
			l0.764,1.726c-0.962,0.664-2.423,1.095-3.75,1.095c-4.413,0-4.546-2.555-4.546-4.977v-18.55H351.291z"/>
		<path d="M365.528,141.861c2.29,0,6.803,0.73,6.803,8.229c0,6.471-3.219,9.191-7.367,9.191c-4.214,0-6.803-2.854-6.803-8.826
			C358.161,143.586,362.243,141.861,365.528,141.861z M369.708,150.654c0-3.98-1.161-6.769-4.38-6.769
			c-3.151,0-4.579,2.654-4.579,6.238c0,3.285,0.664,7.167,4.447,7.167C368.348,157.291,369.708,154.271,369.708,150.654z"/>
	</g>
</g>
</svg>
